<?xml version="1.0" encoding="utf-8"?>
<svg xmlns="http://www.w3.org/2000/svg" viewBox="0 0 500 500">
  <defs>
    <linearGradient id="g" x1="0" x2="1" y1="0" y2="1" gradientUnits="objectBoundingBox" spreadMethod="pad">
      <stop offset="0" stop-color="#cbced0" stop-opacity="1"/>
      <stop offset="1" stop-color="#84838b" stop-opacity="1"/>
    </linearGradient>
    <linearGradient id="b" x1="0" x2="1" y1="0" y2="1" gradientUnits="objectBoundingBox" spreadMethod="pad">
      <stop offset="0" stop-color="#276dc3" stop-opacity="1"/>
      <stop offset="1" stop-color="#165caa" stop-opacity="1"/>
    </linearGradient>
  </defs>
  <path d="M 249.342 414.229 C 114.032 414.229 4.342 340.766 4.342 250.145 C 4.342 159.525 114.032 86.062 249.342 86.062 C 384.653 86.062 494.342 159.525 494.342 250.145 C 494.342 340.766 384.653 414.229 249.342 414.229 Z M 286.844 150.213 C 183.997 150.213 100.622 200.435 100.622 262.388 C 100.622 324.339 183.997 374.561 286.844 374.561 C 389.69 374.561 465.59 340.226 465.59 262.388 C 465.59 184.574 389.69 150.213 286.844 150.213 Z" fill="url(#g)" fill-rule="evenodd" style="transform-origin: 249px 274.991px;"/>
  <path d="M 377.464 340.203 C 377.464 340.203 392.293 344.678 400.908 349.037 C 403.897 350.55 409.068 353.569 412.799 357.532 C 416.454 361.413 418.235 365.346 418.235 365.346 L 476.675 463.877 L 382.221 463.919 L 338.052 380.975 C 338.052 380.975 329.007 365.435 323.442 360.929 C 318.8 357.171 316.82 355.832 312.23 355.832 C 309.035 355.832 289.788 355.832 289.788 355.832 L 289.805 463.859 L 206.224 463.894 L 206.224 187.949 L 374.067 187.949 C 374.067 187.949 450.512 189.328 450.512 262.058 C 450.512 334.79 377.464 340.203 377.464 340.203 Z M 341.109 247.805 L 290.51 247.772 L 290.485 294.693 L 341.109 294.677 C 341.109 294.677 364.553 294.604 364.553 270.809 C 364.553 246.535 341.109 247.805 341.109 247.805 Z" fill="url(#b" fill-rule="evenodd" style="transform-origin: 249px 274.991px;"/>
</svg>