<?xml version="1.0" encoding="utf-8"?>
<svg xmlns="http://www.w3.org/2000/svg" width="947.82338" height="740.89263" viewBox="0 0 947.82338 740.89263" role="img" artist="Katerina Limpitsouni" source="https://undraw.co/">
  <path d="M977.14286,790.02974l85.88668-127.72208-85.711,141.46252.17924,14.37194q-9.40512.07173-18.62749-.31322l4.25978-184.74185-.1167-1.42521.15718-.27537.40771-17.457-94.056-136.55842,93.94506,123.49286.33338,3.68987,3.2175-139.57968L885.77909,323.39432,967.24952,440.454l-.85038-289.17312.00182-.96247.02764.94656,5.39284,227.90732,74.0397-92.57608L972.06383,398.806l1.616,124.85078,68.13175-121.84962L973.93019,542.012l.89954,69.42332,99.082-169.73508L975.13094,635.65412Z" transform="translate(-126.08831 -79.55369)" fill="#e6e6e6"/>
  <path d="M785.65173,803.52865l41.60854-61.87607-41.52344,68.53274.08683,6.96261q-4.55639.03476-9.02425-.15174l2.06369-89.49979-.05654-.69045.07615-.13341.19752-8.45718L733.514,652.05845l45.5125,59.82718.1615,1.78759,1.55875-67.62058-39.357-68.58956,39.46906,56.71057-.412-140.09242.00088-.46628.01339.45857,2.6126,110.41168,35.86918-44.84929-35.75175,54.361.78287,60.485,33.007-59.03111-32.8857,67.92344.43579,33.63273,48.00111-82.22963L784.677,728.74Z" transform="translate(-126.08831 -79.55369)" fill="#e6e6e6"/>
  <path d="M182.65173,803.90708,224.26027,742.031l-41.52344,68.53274.08683,6.96261q-4.55639.03474-9.02425-.15175l2.06369-89.49978-.05654-.69046.07615-.1334.19752-8.45719L130.514,652.43688l45.5125,59.82719.1615,1.78758,1.55875-67.62058-39.357-68.58955,39.46906,56.71056-.412-140.09242.00088-.46627.01339.45856,2.6126,110.41168,35.86918-44.84928-35.75175,54.361.78287,60.485,33.007-59.03111-32.8857,67.92345.43579,33.63272,48.00111-82.22962L181.677,729.11848Z" transform="translate(-126.08831 -79.55369)" fill="#e6e6e6"/>
  <path d="M688.55737,481.65762s-15.43549-43.73381-26.58326-30.01343,17.15055,36.87365,17.15055,36.87365Z" transform="translate(-126.08831 -79.55369)" fill="#ffb9b9"/>
  <path d="M761.44705,438.78119l-9.28553,3.4413s-4.43491,19.71191-2.71985,23.142,2.57255.8575,0,7.71772-10.29033,24.86826-11.14789,27.44082-49.73652-16.293-49.73652-25.72577c0,0-10.29033,12.00539-15.43549,14.57794,0,0,56.59674,41.16125,64.3144,46.30642s12.00538,2.57255,18.8656-3.43011,36.01609-55.73919,36.01609-55.73919Z" transform="translate(-126.08831 -79.55369)" fill="#575a89"/>
  <path d="M743.57879,776.203s.8575,9.43277,2.57255,10.29032,14.57794,22.29577,0,26.58326-23.15321,2.57261-26.58326,4.28761-63.4569,5.14511-64.3144-4.28761,29.15587-11.14782,29.15587-11.14782,27.44081-18.008,31.72848-27.44082S743.57879,776.203,743.57879,776.203Z" transform="translate(-126.08831 -79.55369)" fill="#2f2e41"/>
  <path d="M910.65663,760.3535S931.23729,795.512,926.092,799.79976s-55.253,19.91276-62.59941,20.58066c-9.43277.8575-16.293-6.86022-8.57527-11.14783s24.01076-22.29577,24.01076-28.29837V765.49884Z" transform="translate(-126.08831 -79.55369)" fill="#2f2e41"/>
  <path d="M930.37973,530.53659s18.00805,22.29577-10.29033,58.31174l-47.164,60.02691s29.15587,46.30642,30.01343,70.31713,6.86022,18.8656,8.57527,29.15587,9.43277,5.14516,3.43011,12.86288-28.29837,14.578-35.15859,8.57527a21.259,21.259,0,0,1-6.86022-17.15054c0-3.43011-12.00538-23.15321-12.86288-29.15588s-32.586-54.88169-32.586-54.88169-10.29033-29.15587,1.715-45.44886,19.93855-39.40106,19.93855-39.40106-35.374,42.83117-60.2423,53.1215c0,0-9.43277,1.71505-7.71772,6.00266s0,6.86022-2.57255,11.14789-13.58066,87.02413-19.58326,99.887-3.43011,20.5806-10.29033,24.86826-37.73114.8575-37.73114-3.4301,4.2876-15.43538,6.86021-21.43816,16.15321-108.46229,14.43816-120.46767.85755-28.29837,13.72044-35.15859,78.03489-62.59941,81.465-62.59941S930.37973,530.53659,930.37973,530.53659Z" transform="translate(-126.08831 -79.55369)" fill="#2f2e41"/>
  <circle cx="631.92863" cy="280.33511" r="36.0161" fill="#ffb9b9"/>
  <path d="M787.17287,363.31891s11.14789,19.7231,24.86826,22.29576S776.025,427.63343,776.025,427.63343s-12.00538-37.73115-22.29576-39.4462S787.17287,363.31891,787.17287,363.31891Z" transform="translate(-126.08831 -79.55369)" fill="#ffb9b9"/>
  <path d="M752.01428,443.92647c0,11.14789,33.44354,42.87631,33.44354,42.87631L817.18624,513.386s.85756,9.43277,4.28761,10.29033,7.71777.8575,4.28761,6.00266-12.00539,16.293-4.28761,18.00805a63.03724,63.03724,0,0,0,7.02311.66882c2.05821.12007,4.47628.23156,7.19474.33447,6.34559.223,14.28635.36872,22.88735.30868q3.666-.01295,7.46037-.08576c32.4231-.64315,69.98283-4.37343,66.91281-16.66171-5.14517-20.58065-1.71506-27.44081-12.86288-38.5887s-29.15588-49.73652-29.15588-49.73652S854.91738,383.042,824.904,383.042l-6.23422-1.63793a14.27647,14.27647,0,0,0-15.58117,5.98557c-6.01987,9.167-15.51274,22.9388-21.06086,27.38078-8.57528,6.86022-9.913,1.938-9.913,1.938S752.01428,432.77859,752.01428,443.92647Z" transform="translate(-126.08831 -79.55369)" fill="#575a89"/>
  <path d="M828.33412,574.27034s-24.86826,38.5887-9.43277,45.44886,24.01077-40.30376,24.01077-40.30376Z" transform="translate(-126.08831 -79.55369)" fill="#ffb9b9"/>
  <path d="M781.56222,355.82075c-1.38232-.17442-1.81942-1.91851-2.05207-3.2922-1.24586-7.35612-6.72793-14.33166-14.09362-15.51911a19.95555,19.95555,0,0,0-8.39714.67677,31.86053,31.86053,0,0,0-10.77442,5.30336,17.77166,17.77166,0,0,1-5.38431,3.381c-1.35144.39687-7.08975,2.948-8.43046,3.37963-2.94782.94906-5.38721,4.03444-8.42311,3.42356-2.90453-.58445-4.00761-4.0918-4.47443-7.01748-1.06356-6.6654,2.75161-16.61071,6.54482-22.19378,2.87857-4.23673,7.74958-6.675,12.61985-8.26132a90.67549,90.67549,0,0,1,17.50246-3.4778c8.011-.9461,16.30828-1.44809,23.98555,1.02815s14.66781,8.53373,16.10107,16.47211c.29855,1.65363.35446,3.34742.7204,4.98743.89256,4.00088,3.53974,7.36395,5.08391,11.16115a21.492,21.492,0,0,1-.65567,17.42313c-2.13829,4.30013-5.85681,8.43244-5.0543,13.16739l-6.61742-5.21788a4.806,4.806,0,0,1-2.20882-5.6252l.962-8.28594a7.29041,7.29041,0,0,0-.42916-4.47988C785.146,347.716,783.86688,356.11159,781.56222,355.82075Z" transform="translate(-126.08831 -79.55369)" fill="#2f2e41"/>
  <path d="M843.76956,515.101l-8.07786,33.58927c8.14653.29159,18.9254.446,30.34778.223,2.88135-8.64388,5.634-17.65648,7.74351-26.09453,7.71777-30.87093-5.14517-78.0349-12.00539-100.33056s-24.01076-28.29837-24.01076-28.29837a78.203,78.203,0,0,0-19.7231,10.29033C806.896,412.19793,843.76956,515.101,843.76956,515.101Z" transform="translate(-126.08831 -79.55369)" opacity="0.1" style="isolation:isolate"/>
  <path d="M836.9094,513.386,828.497,548.35584c2.05822.12007,4.47629.23156,7.19475.33447,6.34559.223,14.28635.36872,22.88735.30868,3.09552-9.18406,6.08854-18.87411,8.34371-27.89535,7.71778-30.87092-5.14516-78.0349-12.00538-100.33055s-21.8669,2.14375-21.8669,2.14375,6.00266-14.57794-5.14516-6.86022S836.9094,513.386,836.9094,513.386Z" transform="translate(-126.08831 -79.55369)" opacity="0.1" style="isolation:isolate"/>
  <path d="M834.33679,392.47478s17.15054,6.00266,24.01076,28.29837,19.7231,69.45963,12.00538,100.33055-24.01076,69.45963-24.01076,69.45963-16.293-12.00539-22.29577-9.43277l16.293-67.74458s-36.87364-102.9031-25.72582-110.62088A78.20349,78.20349,0,0,1,834.33679,392.47478Z" transform="translate(-126.08831 -79.55369)" fill="#575a89"/>
  <path d="M668.95185,461.79633v22.24826h2.1987V465.09452" transform="translate(-126.08831 -79.55369)" fill="#3f3d56"/>
  <path d="M671.15055,456.84468v-55.2515h-2.1987v51.96076" transform="translate(-126.08831 -79.55369)" fill="#3f3d56"/>
  <rect x="135.97755" y="515.19286" width="322.41008" height="222.15536" fill="#e6e6e6"/>
  <path d="M450.19131,273.23511h-.00006c-27.37867,0-49.57342,24.63131-49.57342,55.01559v38.60353h11.87269l6.87358-14.30293-1.71841,14.30293h76.313l6.24874-13.00266-1.56217,13.00266h8.592V336.54356C507.23732,301.5793,481.69694,273.23511,450.19131,273.23511Z" transform="translate(-126.08831 -79.55369)" fill="#2f2e41"/>
  <path d="M393.38889,525.45008l-30.43766,12.93605L257.18036,624.37252c-3.88931,4.77948-39.569,78.377-28.15487,85.22548s52.505,27.39393,54.78778,13.697,14.45788-72.28943,14.45788-72.28943l101.96615-91.313Z" transform="translate(-126.08831 -79.55369)" fill="#2f2e41"/>
  <path d="M273.92107,711.88075l-12.936,38.04708s13.697,14.45789,6.84847,26.633v41.85181H257.18032l-3.04376-22.06728s-12.134,21.78852-18.2626,22.06728c-12.84761.58444-38.28961,5.15441-39.05055-1.69407s19.26608-13.52473,19.26608-13.52473l21.30641-58.59253,9.13129-35.76425Z" transform="translate(-126.08831 -79.55369)" fill="#2f2e41"/>
  <path d="M472.52683,515.55785s6.84849,66.96286-12.936,79.13791S352.298,645.67889,352.298,645.67889s37.28612,35.00333,29.67672,43.37366-41.85178,31.19859-46.41744,26.63294-55.54873-59.35345-49.46118-76.85508,90.55205-74.57226,90.55205-74.57226l9.89219-35.76425,3.04378-28.91577,31.95956-20.54538Z" transform="translate(-126.08831 -79.55369)" fill="#2f2e41"/>
  <circle cx="311.57606" cy="248.37537" r="31.72237" fill="#a0616a"/>
  <path d="M462.25411,340.92182s-1.52187,28.91577,22.06732,38.04708-58.59253,68.48472-58.59253,68.48472V381.25173s10.65322-11.41414,0-28.91577Z" transform="translate(-126.08831 -79.55369)" fill="#a0616a"/>
  <path d="M512.85671,476.74985l-6.08753,29.67676L488.50659,608.39273s15.21884,43.37365-5.32657,42.61274-10.65322-47.1784-10.65322-47.1784L483.18,519.36259V486.64212Z" transform="translate(-126.08831 -79.55369)" fill="#a0616a"/>
  <path d="M381.97479,462.292l-6.84849,26.63294-31.19858,75.33324s-21.3064,35.76426-3.80472,35.00327,17.50167-35.00327,17.50167-35.00327l35.76425-60.87535V469.14045Z" transform="translate(-126.08831 -79.55369)" fill="#a0616a"/>
  <path d="M376.64818,684.487l25.11107,23.5892s17.50166-3.80474,24.35011,16.74071S437.5235,758.2983,437.5235,758.2983l-9.13131,5.32657-11.41411-15.97979s-6.84848,28.91577-13.697,31.19859-41.09085,17.50164-38.04708,0l16.74071-24.35011s2.28283-27.39386-4.56565-29.67669S352.298,699.7057,352.298,699.7057Z" transform="translate(-126.08831 -79.55369)" fill="#2f2e41"/>
  <path d="M428.90369,385.24961c-.4,10.70452,9.72127,19.11874,19.99656,16.09135a12.0071,12.0071,0,0,0,8.02725-7.15326,37.35718,37.35718,0,0,1,19.74938-19.42s45.6916,10.28865,44.93064,28.55127-28.91577,46.41744-28.91577,46.41744,3.8047,101.20519-16.74071,99.68335a44.069,44.069,0,0,1-9.13132-18.26259c-10.31135,16.29333-81.11815,5.011-73.05038-22.06729,0,0-6.08752,10.65319-6.84847,6.08747s6.08752-116.424,6.08752-116.424l36.287-23.98565Z" transform="translate(-126.08831 -79.55369)" fill="#037e81"/>
  <path d="M515.746,395.968l.50951.286a10.4983,10.4983,0,0,1,5.36055,9.15663l-.00779,56.47171c.01154,3.10682-4.30841,23.14042-1.9323,25.14205,2.9312,2.49324-7.06019,60.28208-12.6696,62.15187-9.13131,3.04378-39.11312-2.6482-39.874-7.97481s10.3406-61.78827,12.62343-61.78827c1.78714,0,12.43543-54.56573,20.99144-77.896A10.49985,10.49985,0,0,1,515.746,395.968Z" transform="translate(-126.08831 -79.55369)" fill="#037e81"/>
  <path d="M403.28115,396.09l-10.65322,3.04378-12.175,52.505s-22.69794,62.59011-18.13229,67.91669,33.03849,4.557,33.03849,4.557Z" transform="translate(-126.08831 -79.55369)" fill="#037e81"/>
  <path d="M464.28414,288.39008a25.99892,25.99892,0,0,0-20.51388-10.4684H442.797c-18.76535,0-33.97762,16.98051-33.97762,37.92707v.00007h6.28779l1.01545-7.72932,1.48888,7.72932H454.904l3.1244-6.53916-.78112,6.53916h7.33652q5.1352,25.50272-14.75689,51.00545h12.49756l6.24875-13.07832L467.011,366.85427h23.82339l4.68657-30.0802C495.52088,314.24674,482.43186,295.14407,464.28414,288.39008Z" transform="translate(-126.08831 -79.55369)" fill="#2f2e41"/>
  <rect y="737.89263" width="888" height="2" fill="#3f3d56"/>
  <path d="M684.81533,432.14837c-6.49219,5.14594-15.48216,4.61548-15.48216,4.61548s1.53594-8.87366,8.02813-14.0196,15.48216-4.61548,15.48216-4.61548S691.30752,427.00244,684.81533,432.14837Z" transform="translate(-126.08831 -79.55369)" fill="#037e81"/>
  <path d="M663.36408,422.23706c5.81176,5.90361,6.24735,14.89868,6.24735,14.89868s-8.98713-.57657-14.79889-6.48018-6.24735-14.89868-6.24735-14.89868S657.55232,416.33346,663.36408,422.23706Z" transform="translate(-126.08831 -79.55369)" fill="#037e81"/>
  <path d="M384.16283,114.82062a42.34991,42.34991,0,0,0-5.06058.31437,59.61744,59.61744,0,0,0-109.11467,0,41.904,41.904,0,0,0-46.89927,38.31132H426.00152A41.97892,41.97892,0,0,0,384.16283,114.82062Z" transform="translate(-126.08831 -79.55369)" fill="#f2f2f2"/>
  <path d="M577.93312,181.22291a25.46249,25.46249,0,0,0-3.04263.189,35.84452,35.84452,0,0,0-65.60435,0,25.19443,25.19443,0,0,0-28.19783,23.03438h122A25.2395,25.2395,0,0,0,577.93312,181.22291Z" transform="translate(-126.08831 -79.55369)" fill="#f2f2f2"/>
  <g id="Layer_1_00000016797738894439544970000003318810302168151739_" transform="matrix(0.019834, 0, 0, 0.019834, 518.91, 265.603)">
    <g>
      <path class="st0" d="M2420.5,669.8l-953.1-550.4L1260.5,0l-206.9,119.4L100.5,669.8L0,727.7v1455.5l100.5,58l965.1,557.2 l195.2,112.5l195.2-112.5l965.1-557.2l99.8-57.6V727.7L2420.5,669.8z" style="fill: rgb(0, 136, 218);"/>
      <path class="st1" d="M1260.5,2171.6c1-1,2.1-2.1,3.1-3.1h-1C1262.2,2169.5,1261.5,2170.6,1260.5,2171.6z" style="fill: rgb(226, 176, 88);"/>
      <path class="st2" d="M423.8,1568L423.8,1568C412.5,1567.7,420,1568,423.8,1568z M423.5,1568c-11-0.3-6.2,0-2.4,0h5.8h-0.3H423.5 C425.9,1568,426.9,1568.4,423.5,1568z M707.9,1400.6c23.6-91.5-87.4-213.4-96.6-225c-0.1-0.1-0.2-0.2-0.3-0.4 c-133.2-136.3-64.7-272.4,28.3-257.4c66.9,11,32.3,109.1,68.3,118.7h0.7c21.6,2.1,63.8-49.8,70-67.3 c24-67.9-114.6-109.5-156.8-106.7c-84.7,5.1-140.3,51.1-174.3,127c-62.4,139.6,54.2,232.6,124.9,328.4 c53.5,72.4,51.1,136.9-14.4,199c-72,68.3-145.2-28.5-154.8-94.7c-8.6-60.7-18.5-100.2-69.3-23c-47,71.7,18.5,159.7,77.7,169 C425.3,1569.2,645.7,1617.5,707.9,1400.6z M1628.4,1784.5c-325.2,29.5-803.9,73.4-904.7,425.5c-0.7,2.1-2.4,3.1-4.5,2.4 c-1-0.3-1.7-0.7-2.1-1.7C618.3,2041.9,406,1918,209,1923.9c-2.1,0.3-3.8-0.7-4.1-2.7s0.7-3.8,2.7-4.1 c507.1-251.8,1025.1-131.1,1572.7-228.9c229.5-60.1,372.1-167.2,449.6-349.4c12.9-22.2,12.2-56.5-23.5-32.1 c-55.2,37.4-106.1,91.6-166.1,120.8c-2.7,1.4-5.8,2.7-8.9,3.8c-1,0.3-1.7,1.4-2.1,2.4c-173.9,396.8-657.8,69.7-89.9-13 c1.4-0.3,2.4-1.4,2.4-2.4l32-104c0.7-2.1-0.7-3.8-2.4-4.5c-1.4-0.3-3.1,0.3-3.8,1.4c-13,19.2-27.4,37.4-42.9,54.6 c-20.2,21.3-36,34.3-48,39.1c-13.7,5.1-28.1,8.2-42.5,8.9c-17.2,1-31.9-5.8-43.2-20.2c-11.3-14.4-17.5-35.7-18.9-63.8 c-0.3-4.5-0.3-9.6,0-15.1c0.3-2.1-0.7-3.8-2.4-4.5c-2.1-0.3-3.8,0.7-4.5,2.4c-5.5,10.6-11,20.6-16.5,29.5 c-16.1,28.1-36.4,53.9-59.4,76.9c-22.6,22.6-44.6,34.7-64.8,36c-38.1,2.4-58.7-19.2-61.4-64.5c-2.7-43.2,14.4-132.1,51.5-264.5 c2.1-5.8,2.7-12,2.4-17.8c-0.7-12-7.5-16.8-21.6-15.8c-16.1,1.4-31.6,7.9-44.3,18.5c-15.8,13.4-28.8,29.9-38.1,48.4 c-11.3,20.6-21.3,41.9-30.5,63.5c-9.6,23.7-17.5,48.4-23.7,73.4c-6.9,27.8-12.7,51.1-16.5,69.3c-4.1,18.9-7.9,38.8-11.7,59.4 c-2.7,14.4-5.8,32.3-6.5,35l-0.7,2.7c0,0-93.5,6.5-94.3,6.2c-2-16.8,16.7-80.9,18.7-90.6c-17.1,29.9-23.8,39.4-37.6,57.7 c-8.9,11.3-18.6,22.1-28.8,32.3c-22.6,22.6-44.6,34.7-64.8,36c-1.4,0-2.7,0-4.1,0c-33.3,0-52.1-26.1-55.2-77.5 c-0.7-10.3-1-20.6-0.7-31.2c0.3-2.1-0.7-3.8-2.4-4.5c-2.1-0.3-3.8,0.7-4.5,2.4c-51.8,95-98.5,143.1-141.7,145.8 c-38.1,2.4-58.7-20.2-61.8-67.6c-3.4-52.5,11-129.4,42.9-228.2c6.9-24.4,9.9-41.2,9.3-50.1c-1-13.7-7.2-15.4-12.4-15.4h-1.4 c-4.5,0.3-14.1,3.1-34.3,15.8c-17.8,11.7-33.3,26.1-46,42.9c-14.8,19.2-26.4,40.8-35,63.5c-8.9,24-16.1,44.9-21.3,62.4 s-10.3,39.1-15.4,63.8s-9.6,46-13.7,61.8c-4.1,15.8-8.2,34-12.4,54.9l-0.7,2.7l-90.6,5.8c-2.1,0-3.8-1.4-3.8-3.4 c0-0.3,0-0.7,0-1.4l0,0c13.4-46.3,32.3-121.5,56.3-223c24-101.6,46-182.9,63.8-241.2c15.4-50.8,33.6-100.9,54.9-149.3 c16.5-37.7,38.8-73.1,65.9-104.3c25.7-28.8,54.6-44.3,85.1-46.3c32.3-2.1,49.4,14.1,51.8,47.4c1.4,22.3-5.1,52.2-19.2,89.6 c-25.7,66.2-68.6,143.4-128,229.5c-1.4,1.4-1.4,3.8,0,5.1s3.8,1.4,5.1,0c10.3-7.9,21.3-15.1,32.9-20.9c17.2-8.9,36-14.1,55.6-15.8 c36.7-2.4,56.3,14.4,58.7,49.8c1,13-0.3,26.1-4.1,38.4c-3.4,11.3-7.2,24.7-11.7,39.5c-4.1,14.8-7.5,27.1-10.3,36.4 c-2.7,9.6-6.2,22.3-10.6,38.4c-4.5,16.1-7.9,30.2-9.9,41.2c-6.2,27.8-8.6,50.1-7.5,66.2c1.4,20.6,9.6,20.6,12.4,20.6h1 c34.7-2.1,75.5-62.4,121.8-179.1c0.3-0.7,0.3-1,0.7-1.7c10.6-38.4,24-76.2,40.1-112.5c19.2-42.2,42.5-64.5,70-66.2l54.9-2.7 c2.1,0,3.8,1.4,3.8,3.4c0,1-0.3,2.1-1,2.7l0,0c-8.6,8.2-19.9,30.2-33.6,65.5c-14.4,38.1-24.4,64.2-30.9,81.7 c-6.5,18.2-14.1,42.9-22,73.8s-11.3,55.6-9.9,74.1c1.7,24.4,11,24.4,14.1,24.4h1c4.8-0.3,13.7-3.8,29.8-18.5 c12.4-11.3,23-24,31.9-38.1c8.2-13.4,17.2-30.2,27.1-50.8c9.9-20.6,18.5-38.4,25.7-53.5c7.9-16.1,11-21.6,13-23.7l4.5-8.2 c16.8-67.9,24.7-115.6,23-142.1c0-4.5-1-8.9-3.1-13l0,0c-1-1.4-1-3.8,0.7-4.8c0.7-0.3,1.4-0.7,2.1-0.7l38.1-2.4 c22.3-1.4,36.4,0,43.6,4.8s11.7,12.7,12,20.9c0,8.2-0.7,16.8-2.4,25c-0.3,2.1,1,3.8,3.1,4.1c1,0.3,2.4-0.3,3.1-1 c42.9-44.6,87.5-68.6,133.5-71.4c36.7-2.4,56.6,15.1,58.7,51.8c0.7,11.7,0,23.3-2.4,35s-8.2,34.3-18.5,69.3 c-21.6,75.1-31.9,125.6-30.2,150.3c1,17.5,7.9,19.6,13,19.6h1c4.8-0.3,13.7-3.8,29.5-18.9c12.4-11.7,23-24.7,32.3-38.8 c9.9-16.1,19.2-32.9,27.4-50.1c9.9-19.9,18.2-37.7,25.4-52.8c2.4-5.5,4.5-9.6,6.2-13c0-0.3,0.3-0.3,0.3-0.7 c9.9-41.9,21.6-76.5,35-103.3c15.4-31.6,32.9-52.5,51.5-62.8c18.5-10.3,43.9-16.1,76.5-18.2l0,0c4.1-0.3,7.5,2.7,7.9,6.5 c0,0.3,0,0.3,0,0.7c0.3,3.8-1.7,7.9-5.8,13c-23,25-45.3,69.3-66.9,131.8c-21.6,62.4-30.9,114.9-28.5,156.8 c1.4,19.2,6.2,29.2,14.4,29.2h0.7c20.2-1.4,46-26.4,75.8-74.8c29.2-46,52.1-95.4,68.6-147.2c2.1-6.9,4.8-16.5,8.6-29.5 c3.8-13,6.5-21.6,7.9-26.4s4.1-11.7,7.5-20.2c2.3-6.7,5.7-12.8,9.7-18.5c0.2-0.3,0.4-0.5,0.6-0.8c2.7-3,6.7-7,11.3-12 c4.8-5.1,10.3-8.9,16.8-11c16.1-4.8,32.6-7.9,49.4-9.3l38.1-2.4c1.7-0.7,3.8,0.3,4.5,2.1c0.7,1.7-0.3,3.8-2.1,4.5l-0.7,0.7 c-17.2,13.4-34,45.3-49.7,95c-13,42.2-24,81.3-32.6,116s-14.1,55.9-16.1,63.5c-2.1,7.5-6.5,26.1-13.4,54.2 c-5.1,21.3-9.6,38.8-13.4,52.8c-0.7,1.7,0,3.8,1.7,4.5c1,0.3,2.4,0.3,3.4-0.7c37.4-22.3,71.7-49.1,102.9-79.6 c17.5-17.5,156.4-164.1,156.4-71.4C2302.3,1577,1953.6,1755,1628.4,1784.5z M1041.4,812.5c-13.4,0.7-37.1,21.3-72.7,113.2 C944,989.2,920,1061.6,897,1141.2c-0.7,2.1,0.7,3.8,2.4,4.5c1.4,0.3,3.1,0,4.1-1.4c61.8-94.4,104.6-172.9,127.3-234.3 c14.1-41.9,20.6-69.7,19.9-82c-1-15.1-6.9-15.1-8.6-15.1L1041.4,812.5z M1927.1,1470c-14.3,2.7-190.1,48-172.3,86.9 C1775.1,1601,1893.7,1544.8,1927.1,1470z M1318.9,1017.7L1318.9,1017.7c22-1,49.4-9.3,55.9-41.9c3.1-14.8-5.8-31.6-11.3-36.4 c-5.5-4.8-13-6.9-23-6.2s-22,6.9-33.3,17.5c-15.1,14.1-14.4,34.3-9.6,47.7C1302.1,1009.8,1310,1017.3,1318.9,1017.7z" style="fill: rgb(255, 255, 255); opacity: 0.9;"/>
      <path class="st3" d="M2287.7,676.6c-180.1,288.1-572.6,487.9-1027.6,487.9C804.9,1164.5,412.8,965,232.5,677l-95.9,55.3 l-64.4,37.1v1371.9l64.3,37.1l965.1,557.2l159.1,91.7l159.1-91.7l965.1-557.2l63.7-36.8V769.5l-64.3-37.1L2287.7,676.6z" style="fill: none;"/>
      <linearGradient id="SVGID_1_" gradientUnits="userSpaceOnUse" x1="1256.8513" y1="-1247.4922" x2="1261.5251" y2="418.9951" gradientTransform="matrix(1 0 0 1 0 736.4382)">
        <stop offset="0" style="stop-color:#FFFFFF;stop-opacity:0.83"/>
        <stop offset="0.56" style="stop-color:#FFFFFF;stop-opacity:0.37"/>
        <stop offset="1" style="stop-color:#FFFFFF;stop-opacity:0"/>
      </linearGradient>
      <path class="st4" d="M1260.1,1152.8c455,0,847.5-199.8,1027.6-487.9l-856.5-494.6l-170.7-98.5l-170.7,98.5l-857.2,495 C412.9,953.3,804.9,1152.8,1260.1,1152.8z" style="fill: url(&quot;#SVGID_1_&quot;); opacity: 0.25;"/>
      <path class="st5" d="M2420.5,669.8l-953.1-550.4L1260.5,0l-206.9,119.4L100.5,669.8L0,727.7v1455.5l100.5,58l965.1,557.2 l195.2,112.5l195.2-112.5l965.1-557.2l99.8-57.6V727.7L2420.5,669.8z M2448.7,2141.8l-63.7,36.8l-965.1,557.2l-159.1,91.7 l-159.1-91.7l-965.1-557.2l-64.3-37.1v-1372l64.4-37.1l95.9-55.3l857.2-495l170.7-98.5l170.7,98.5l856.5,494.6l96.6,55.8 l64.3,37.1L2448.7,2141.8L2448.7,2141.8z" style="fill: rgb(0, 120, 190);"/>
      <polygon class="st3" points="2287.7,676.6 1431.2,182 2384.3,732.4 &#9;&#9;" style="fill: none;"/>
    </g>
  </g>
  <g id="Layer_2_00000100375734305614562830000003601880053455265933_" transform="matrix(0.019834, 0, 0, 0.019834, 48.0512, 52.0905)"/>
</svg>